<svg width="152" height="35" viewBox="0 0 152 35" fill="none" xmlns="http://www.w3.org/2000/svg">
<path d="M0.245941 2.04819H10.0652C16.3303 2.04819 21.511 5.72289 21.511 13.9759V15.7229C21.511 24.0361 16.6917 27.7711 10.2459 27.7711H0.245941V2.04819ZM5.78811 6.68675V23.0723H10.005C13.5592 23.0723 15.9688 20.7229 15.9688 15.5422V14.2169C15.9688 9.03614 13.499 6.68675 9.82425 6.68675H5.78811ZM24.4628 6.98795H28.8604L29.523 11.8072C30.3664 8.49397 32.4748 6.80723 36.3303 6.80723H37.6556V12.3494H35.4267C30.9688 12.3494 29.8845 13.9157 29.8845 18.3132V27.8313H24.4628V6.98795ZM38.8604 17.8313V17.2289C38.8604 10.241 43.3182 6.44578 49.4026 6.44578C55.6074 6.44578 59.9447 10.3012 59.9447 17.2289V17.8313C59.9447 24.6988 55.7279 28.3735 49.4026 28.3735C42.6556 28.3735 38.8604 24.6988 38.8604 17.8313ZM54.4026 17.7711V17.2892C54.4026 13.3735 52.4748 11.0843 49.4026 11.0843C46.3905 11.0843 44.3423 13.1928 44.3423 17.2892V17.7711C44.3423 21.506 46.27 23.6145 49.3423 23.6145C52.4748 23.6145 54.4026 21.5663 54.4026 17.7711ZM62.776 6.98795H67.3544L67.8965 10.9639C69.0411 8.31325 71.3303 6.50602 74.764 6.50602C80.0652 6.50602 83.5592 10.3614 83.5592 17.3494V17.9518C83.5592 24.8193 79.7038 28.3735 74.764 28.3735C71.4507 28.3735 69.2218 26.8675 68.1375 24.4578V35H62.776V6.98795ZM78.017 17.8313V17.3494C78.017 13.1928 75.9086 11.1446 73.017 11.1446C70.005 11.1446 67.9568 13.4337 67.9568 17.3494V17.7711C67.9568 21.4458 69.8845 23.7952 72.8965 23.7952C76.0291 23.6747 78.017 21.6265 78.017 17.8313ZM91.511 24.0361L91.0893 27.8313H86.3905V0H91.6917V10.7229C92.8363 8.01205 95.1857 6.50602 98.4387 6.50602C103.378 6.56626 107.053 10 107.053 16.9277V17.5301C107.053 24.4578 103.559 28.3735 98.258 28.3735C94.8845 28.3735 92.5953 26.6867 91.511 24.0361ZM101.631 17.5301V17.0482C101.631 13.1928 99.523 11.1446 96.6315 11.1446C93.6194 11.1446 91.5712 13.5542 91.5712 17.1687V17.5904C91.5712 21.506 93.5592 23.7349 96.5712 23.7349C99.7038 23.6747 101.631 21.6265 101.631 17.5301ZM109.523 17.8313V17.2289C109.523 10.241 113.981 6.44578 120.065 6.44578C126.27 6.44578 130.607 10.3012 130.607 17.2289V17.8313C130.607 24.6988 126.33 28.3735 120.065 28.3735C113.318 28.3735 109.523 24.6988 109.523 17.8313ZM125.065 17.7711V17.2892C125.065 13.3735 123.137 11.0843 120.065 11.0843C117.053 11.0843 115.005 13.1928 115.005 17.2892V17.7711C115.005 21.506 116.933 23.6145 120.005 23.6145C123.137 23.6145 125.065 21.5663 125.065 17.7711ZM137.656 16.988L130.366 6.92771H136.631L140.848 13.1928L145.125 6.92771H151.33L143.921 16.9277L151.752 27.7711H145.607L140.788 20.8434L136.15 27.7711H129.764L137.656 16.988Z" fill="#6C7C92"/>
</svg>
