<svg width="177" height="35" viewBox="0 0 177 35" fill="none" xmlns="http://www.w3.org/2000/svg">
<path d="M91.0408 16.9991C89.5806 16.9991 88.528 17.4779 87.4607 17.9657V29.0038C88.483 29.1012 89.069 29.1012 90.0389 29.1012C93.5437 29.1012 94.0241 27.4961 94.0241 25.2551V19.9833C94.0241 18.3283 93.4749 16.9991 91.0408 16.9991ZM67.7647 16.3967C65.333 16.3967 64.7781 17.7316 64.7781 19.385V20.3139H70.7481V19.385C70.7481 17.7316 70.1932 16.3967 67.7647 16.3967ZM22.6745 27.8857C22.6745 29.1937 23.2916 29.873 24.6535 29.873C26.1145 29.873 26.9797 29.3967 28.0462 28.9072V26.2889H24.8516C23.3391 26.2889 22.6745 26.5704 22.6745 27.8857ZM113.682 16.9991C111.247 16.9991 110.403 18.3283 110.403 19.9833V26.0229C110.403 27.6819 111.247 29.0153 113.682 29.0153C116.112 29.0153 116.962 27.6819 116.962 26.0229V19.9833C116.961 18.3283 116.111 16.9991 113.682 16.9991ZM10.7377 34.6579H3.57759V17.3273H0V11.3556H3.57841V7.76905C3.57841 2.89661 5.59761 0 11.3368 0H16.1151V5.97329H13.1285C10.894 5.97329 10.7467 6.80815 10.7467 8.36572L10.7377 11.3548H16.1479L15.5152 17.3265H10.7377V34.6579ZM35.2079 34.7029H29.2403L28.9825 33.1936C26.2578 34.7029 23.8261 34.9476 22.2218 34.9476C17.8454 34.9476 15.516 32.024 15.516 27.9807C15.516 23.2106 18.2342 21.5081 23.0968 21.5081H28.0462V20.4768C28.0462 18.0418 27.7671 17.3273 24.0225 17.3273H17.9002L18.4986 11.3556H25.1905C33.4064 11.3556 35.2079 13.9511 35.2079 20.5251V34.7029ZM55.5006 17.7652C51.7871 17.1284 50.7206 16.9884 48.9339 16.9884C45.7246 16.9884 44.7547 17.6964 44.7547 20.422V25.5776C44.7547 28.3032 45.7246 29.0144 48.9339 29.0144C50.7206 29.0144 51.7871 28.872 55.5006 28.2328V34.0579C52.2479 34.7872 50.1289 34.9787 48.338 34.9787C40.6508 34.9787 37.5954 30.9362 37.5954 25.0964V20.9131C37.5954 15.0683 40.6508 11.0184 48.338 11.0184C50.1289 11.0184 52.2479 11.2108 55.5006 11.9433V17.7652ZM77.9074 25.0964H64.7773V25.5776C64.7773 28.3032 65.748 29.0144 68.9564 29.0144C71.8408 29.0144 73.6013 28.872 77.3082 28.2328V34.0579C73.7331 34.7872 71.8702 34.9787 68.363 34.9787C60.675 34.9787 57.618 30.9362 57.618 25.0964V20.3131C57.618 15.2033 59.886 11.0184 67.7639 11.0184C75.6418 11.0184 77.9074 15.155 77.9074 20.3131V25.0964ZM101.183 25.2068C101.183 30.8511 99.5694 34.9681 89.7967 34.9681C86.2674 34.9681 84.1974 34.6579 80.3023 34.0588V1.79412L87.4599 0.59995V11.886C89.0068 11.3114 91.0088 11.0192 92.8308 11.0192C99.9892 11.0192 101.182 14.2285 101.182 19.3858V25.2068H101.183ZM124.127 25.3296C124.127 30.1988 122.117 34.9214 113.706 34.9214C105.291 34.9214 103.244 30.1988 103.244 25.3296V20.6282C103.244 15.7566 105.291 11.0332 113.706 11.0332C122.117 11.0332 124.127 15.7566 124.127 20.6282V25.3296ZM147.056 25.3296C147.056 30.1988 145.044 34.9214 136.634 34.9214C128.22 34.9214 126.172 30.1988 126.172 25.3296V20.6282C126.172 15.7566 128.22 11.0332 136.634 11.0332C145.044 11.0332 147.056 15.7566 147.056 20.6282V25.3296ZM170.587 34.6579H162.828L156.267 23.7041V34.6579H149.106V1.7933L156.267 0.59913V21.7561L162.828 11.3556H170.587L163.423 22.7056L170.587 34.6579ZM136.61 16.9991C134.178 16.9991 133.334 18.3283 133.334 19.9833V26.0229C133.334 27.6819 134.178 29.0153 136.61 29.0153C139.038 29.0153 139.898 27.6819 139.898 26.0229V19.9833C139.898 18.3283 139.038 16.9991 136.61 16.9991ZM174.673 30.5704C175.879 30.5704 176.839 31.5534 176.839 32.7811C176.839 34.0276 175.878 35 174.664 35C173.456 35 172.477 34.0276 172.477 32.7811C172.477 31.5534 173.456 30.5704 174.664 30.5704H174.673ZM174.664 30.9141C173.693 30.9141 172.898 31.7498 172.898 32.7811C172.898 33.8312 173.694 34.6562 174.673 34.6562C175.654 34.6661 176.437 33.8312 176.437 32.7909C176.437 31.7506 175.654 30.9141 174.673 30.9141H174.664ZM174.253 34.0677H173.86V31.6008C174.066 31.5722 174.263 31.5435 174.557 31.5435C174.93 31.5435 175.174 31.6221 175.324 31.7293C175.469 31.8382 175.547 32.0044 175.547 32.2393C175.547 32.565 175.332 32.7606 175.068 32.84V32.8588C175.283 32.899 175.43 33.0938 175.48 33.4563C175.537 33.8402 175.597 33.9867 175.635 34.0669H175.223C175.165 33.9867 175.106 33.7616 175.056 33.4367C174.999 33.1232 174.84 33.0054 174.526 33.0054H174.254V34.0677H174.253ZM174.253 32.7025H174.538C174.86 32.7025 175.134 32.5838 175.134 32.2785C175.134 32.0625 174.979 31.8472 174.538 31.8472C174.409 31.8472 174.32 31.857 174.253 31.866V32.7025Z" fill="#6C7C92"/>
</svg>
