<svg width="164" height="35" viewBox="0 0 164 35" fill="none" xmlns="http://www.w3.org/2000/svg">
<g clip-path="url(#clip0)">
<path d="M163.858 15.8342V12.9525H160.279V8.47255L160.159 8.50964L156.797 9.53804L156.731 9.55817V12.9526H151.426V11.0616C151.426 10.1811 151.623 9.50729 152.011 9.05792C152.396 8.61394 152.947 8.38822 153.65 8.38822C154.156 8.38822 154.679 8.50726 155.206 8.74201L155.338 8.80098V5.76617L155.275 5.74335C154.784 5.56677 154.116 5.47784 153.288 5.47784C152.244 5.47784 151.296 5.70499 150.469 6.15515C149.641 6.60595 148.99 7.2495 148.534 8.06772C148.08 8.88499 147.849 9.82891 147.849 10.8735V12.9525H145.357V15.8342H147.849V27.9742H151.426V15.8342H156.731V23.5489C156.731 26.7262 158.23 28.3364 161.186 28.3364C161.671 28.3364 162.182 28.2795 162.704 28.168C163.236 28.0536 163.598 27.9393 163.811 27.8173L163.858 27.7894V24.881L163.712 24.9773C163.518 25.1066 163.276 25.2123 162.993 25.291C162.708 25.371 162.47 25.4111 162.286 25.4111C161.594 25.4111 161.082 25.2245 160.764 24.8563C160.442 24.4848 160.279 23.835 160.279 22.9262V15.8342H163.858ZM137.369 25.4116C136.071 25.4116 135.047 24.9811 134.326 24.133C133.6 23.2807 133.232 22.0656 133.232 20.5217C133.232 18.9289 133.6 17.6822 134.326 16.8149C135.048 15.9532 136.062 15.5159 137.34 15.5159C138.58 15.5159 139.568 15.9336 140.275 16.758C140.986 17.5866 141.346 18.8233 141.346 20.4347C141.346 22.0659 141.007 23.3189 140.338 24.1571C139.674 24.989 138.675 25.4116 137.369 25.4116ZM137.528 12.5906C135.051 12.5906 133.084 13.3164 131.681 14.7479C130.279 16.1796 129.568 18.1608 129.568 20.637C129.568 22.9889 130.262 24.8807 131.631 26.259C132.999 27.6377 134.862 28.3361 137.166 28.3361C139.567 28.3361 141.495 27.6001 142.897 26.1488C144.299 24.6991 145.01 22.7366 145.01 20.3182C145.01 17.9295 144.343 16.0236 143.028 14.6545C141.712 13.2849 139.861 12.5906 137.528 12.5906ZM123.801 12.5906C122.116 12.5906 120.722 13.0216 119.657 13.8714C118.586 14.7262 118.043 15.8473 118.043 17.204C118.043 17.9092 118.16 18.5356 118.391 19.067C118.623 19.6 118.983 20.0694 119.46 20.4633C119.934 20.854 120.665 21.2632 121.634 21.6796C122.449 22.0149 123.057 22.2985 123.442 22.522C123.82 22.741 124.087 22.9612 124.239 23.1757C124.386 23.3855 124.46 23.6727 124.46 24.0272C124.46 25.0364 123.704 25.5274 122.149 25.5274C121.572 25.5274 120.914 25.407 120.194 25.1695C119.478 24.9357 118.803 24.5932 118.191 24.1541L118.043 24.0476V27.4915L118.097 27.5169C118.603 27.7505 119.241 27.9476 119.993 28.1026C120.744 28.2578 121.426 28.3367 122.019 28.3367C123.847 28.3367 125.32 27.9037 126.394 27.0488C127.475 26.1881 128.023 25.0405 128.023 23.6369C128.023 22.6244 127.728 21.7561 127.147 21.0558C126.569 20.3612 125.567 19.7235 124.169 19.1598C123.055 18.7128 122.342 18.3418 122.048 18.0569C121.764 17.7818 121.62 17.3926 121.62 16.8998C121.62 16.463 121.798 16.113 122.163 15.8296C122.531 15.5447 123.043 15.3999 123.685 15.3999C124.281 15.3999 124.891 15.494 125.497 15.6785C126.103 15.863 126.635 16.1101 127.08 16.4124L127.226 16.5123V13.2454L127.17 13.2213C126.76 13.0455 126.219 12.8951 125.563 12.773C124.909 12.6518 124.316 12.5906 123.801 12.5906ZM108.718 25.4116C107.42 25.4116 106.396 24.9811 105.674 24.133C104.948 23.2807 104.581 22.0659 104.581 20.5217C104.581 18.9289 104.949 17.6822 105.675 16.8149C106.396 15.9532 107.41 15.5159 108.689 15.5159C109.929 15.5159 110.916 15.9336 111.624 16.758C112.335 17.5866 112.695 18.8233 112.695 20.4347C112.695 22.0659 112.356 23.3189 111.687 24.1571C111.023 24.989 110.024 25.4116 108.718 25.4116ZM108.877 12.5906C106.399 12.5906 104.432 13.3164 103.03 14.7479C101.628 16.1796 100.917 18.1608 100.917 20.637C100.917 22.9899 101.611 24.8807 102.98 26.259C104.348 27.6377 106.211 28.3361 108.515 28.3361C110.916 28.3361 112.844 27.6001 114.246 26.1488C115.648 24.6991 116.359 22.7366 116.359 20.3182C116.359 17.9295 115.692 16.0236 114.377 14.6545C113.06 13.2849 111.21 12.5906 108.877 12.5906ZM95.487 15.5539V12.9525H91.9535V27.9739H95.487V20.2898C95.487 18.9833 95.7832 17.9098 96.3678 17.0991C96.9449 16.298 97.714 15.892 98.653 15.892C98.9713 15.892 99.3286 15.9445 99.7155 16.0483C100.098 16.1515 100.376 16.2636 100.539 16.3815L100.688 16.4891V12.9268L100.631 12.9022C100.302 12.7624 99.8361 12.6919 99.2471 12.6919C98.3591 12.6919 97.5645 12.9772 96.8839 13.539C96.2865 14.0327 95.8547 14.7097 95.5245 15.5539H95.487ZM85.6257 12.5906C84.0046 12.5906 82.5587 12.9382 81.3288 13.6234C80.0964 14.3103 79.1433 15.2908 78.4949 16.5376C77.8493 17.7814 77.5215 19.2343 77.5215 20.8546C77.5215 22.2739 77.8393 23.5764 78.4674 24.7243C79.0959 25.8741 79.9855 26.7736 81.1115 27.3975C82.236 28.0206 83.5356 28.3365 84.9745 28.3365C86.6538 28.3365 88.0875 28.0008 89.237 27.3387L89.2834 27.3121V24.0749L89.1349 24.1833C88.6142 24.5626 88.0323 24.8654 87.4062 25.0835C86.7817 25.3014 86.2123 25.4116 85.713 25.4116C84.3265 25.4116 83.2135 24.9777 82.4056 24.1224C81.5959 23.266 81.1854 22.0634 81.1854 20.5501C81.1854 19.0273 81.6135 17.7938 82.4573 16.8837C83.2985 15.9762 84.4136 15.5159 85.7714 15.5159C86.9327 15.5159 88.0645 15.9091 89.1352 16.6858L89.2834 16.7935V13.3825L89.2355 13.3556C88.8326 13.13 88.2831 12.9438 87.6009 12.8025C86.9215 12.6616 86.257 12.5906 85.6257 12.5906ZM75.0879 12.9526H71.5544V27.9739H75.0879V12.9526ZM73.3573 6.55348C72.7757 6.55348 72.2685 6.75146 71.8518 7.14377C71.4333 7.53719 71.2211 8.03253 71.2211 8.61711C71.2211 9.19249 71.4308 9.6788 71.8453 10.0618C72.2571 10.4436 72.7659 10.6371 73.3574 10.6371C73.9488 10.6371 74.4596 10.4436 74.8763 10.0624C75.2957 9.6788 75.5084 9.19265 75.5084 8.61711C75.5084 8.05298 75.3014 7.56271 74.8936 7.15962C74.486 6.75733 73.969 6.55348 73.3573 6.55348ZM64.541 11.8443V27.9739H68.1471V7.01332H63.1562L56.8123 22.5822L50.656 7.01332H45.4619V27.9737H48.8506V11.8428H48.967L55.4679 27.9739H58.0252L64.4247 11.8443H64.541Z" fill="#6C7C92"/>
<path d="M16.6225 16.6314H-3.05176e-05V0.00891113H16.6225V16.6314Z" fill="#6C7C92"/>
<path d="M34.9756 16.6314H18.3534V0.00891113H34.9756V16.6314Z" fill="#6C7C92"/>
<path d="M16.622 34.991H-3.05176e-05V18.3687H16.622V34.991Z" fill="#6C7C92"/>
<path d="M34.9756 34.991H18.3534V18.3687H34.9756V34.991Z" fill="#6C7C92"/>
</g>
<defs>
<clipPath id="clip0">
<rect width="163.858" height="35" fill="white"/>
</clipPath>
</defs>
</svg>
