<svg width="108" height="35" viewBox="0 0 108 35" fill="none" xmlns="http://www.w3.org/2000/svg">
<g clip-path="url(#clip0)">
<path d="M13.2056 0.0045166H14.1592C17.4696 0.0764833 20.7261 1.40787 23.0651 3.76478C22.2015 4.64637 21.3199 5.49198 20.4743 6.37357C19.1609 5.18612 17.5776 4.26854 15.8504 3.94469C13.2956 3.40494 10.5429 3.89072 8.40184 5.34805C6.06292 6.87734 4.47966 9.46814 4.13781 12.2389C3.75999 14.9736 4.53363 17.8523 6.31481 19.9753C8.02402 22.0443 10.6328 23.3397 13.3316 23.4297C15.8504 23.5736 18.4772 22.8 20.3123 21.0368C21.7517 19.7954 22.4174 17.9062 22.6333 16.0711C19.6466 16.0711 16.66 16.0891 13.6734 16.0711V12.3648H26.2496C26.8973 16.341 25.9617 20.8209 22.9391 23.6636C20.924 25.6786 18.1353 26.8661 15.2927 27.1C12.5399 27.3699 9.69724 26.8481 7.25037 25.5167C4.31773 23.9514 1.97881 21.3067 0.827347 18.1941C-0.252153 15.3334 -0.270145 12.0949 0.737389 9.21626C1.65496 6.58947 3.41815 4.26854 5.6851 2.64929C7.86209 1.04803 10.5069 0.166442 13.2056 0.0045166Z" fill="#6C7C92"/>
<path d="M85.3526 0.93866H89.2028V26.6308C87.9254 26.6308 86.63 26.6488 85.3526 26.6128C85.3706 18.0667 85.3526 9.5027 85.3526 0.93866Z" fill="#6C7C92"/>
<path d="M34.814 9.84454C37.1889 9.39474 39.7617 9.89851 41.7228 11.3199C43.504 12.5793 44.7454 14.5584 45.1232 16.7174C45.609 19.2182 44.9973 21.9529 43.378 23.932C41.6328 26.145 38.7721 27.3325 35.9834 27.1525C33.4286 27.0086 30.9458 25.7312 29.4345 23.6442C27.7252 21.3412 27.3114 18.1747 28.247 15.4759C29.1826 12.5793 31.8274 10.3663 34.814 9.84454ZM35.3537 13.263C34.3822 13.5148 33.4826 14.0726 32.8349 14.8642C31.0897 16.9513 31.1976 20.3517 33.1228 22.2948C34.2202 23.4103 35.8755 23.932 37.4048 23.6262C38.8261 23.3743 40.0675 22.4207 40.7512 21.1613C41.9387 19.0203 41.5968 16.0697 39.7797 14.3964C38.6102 13.3169 36.901 12.8671 35.3537 13.263Z" fill="#6C7C92"/>
<path d="M53.8851 9.84458C56.6018 9.32282 59.5705 10.0785 61.6035 11.9856C64.914 14.9542 65.2738 20.5136 62.4491 23.9321C60.7399 26.0911 57.9692 27.2785 55.2345 27.1526C52.6257 27.0806 50.0529 25.7852 48.5056 23.6442C46.7604 21.2873 46.3826 18.0488 47.3721 15.2961C48.3616 12.4894 50.9525 10.3483 53.8851 9.84458ZM54.4248 13.263C53.4533 13.5149 52.5537 14.0726 51.906 14.8463C50.1788 16.8973 50.2508 20.2438 52.1039 22.2049C53.2014 23.3743 54.9106 23.9501 56.4939 23.6262C57.8972 23.3563 59.1567 22.4208 59.8403 21.1613C61.0098 19.0023 60.668 16.0517 58.8328 14.3785C57.6633 13.299 55.9541 12.8672 54.4248 13.263Z" fill="#6C7C92"/>
<path d="M70.0596 10.888C72.1286 9.59264 74.8814 9.23281 77.1123 10.3483C77.814 10.6542 78.3897 11.1759 78.9475 11.6977C78.9655 11.2119 78.9475 10.7081 78.9655 10.2044C80.1709 10.2224 81.3764 10.2044 82.5998 10.2224V26.091C82.5818 28.4839 81.9701 31.0207 80.2429 32.7659C78.3538 34.691 75.4571 35.2848 72.8483 34.8889C70.0596 34.4751 67.6307 32.4421 66.5512 29.8693C67.6307 29.3475 68.7642 28.9337 69.8797 28.4479C70.5094 29.9232 71.7868 31.1827 73.388 31.4705C74.9893 31.7584 76.8425 31.3626 77.886 30.0312C79.0015 28.6638 79.0015 26.7927 78.9475 25.1195C78.1199 25.9291 77.1663 26.6488 76.0148 26.9186C73.514 27.6203 70.7613 26.7567 68.8362 25.0655C66.8931 23.3743 65.7416 20.7655 65.8495 18.1747C65.9035 15.242 67.5587 12.4173 70.0596 10.888ZM73.7839 13.191C72.6864 13.3709 71.6608 13.9826 70.9592 14.8282C69.268 16.8433 69.268 20.0638 70.9772 22.0429C71.9487 23.2123 73.514 23.86 75.0253 23.6981C76.4466 23.5542 77.76 22.6546 78.4617 21.4132C79.6492 19.3082 79.4512 16.4475 77.85 14.6123C76.8604 13.4788 75.2772 12.9211 73.7839 13.191Z" fill="#6C7C92"/>
<path d="M93.8266 11.8057C95.9856 9.79061 99.3141 9.10693 102.085 10.1684C104.712 11.158 106.385 13.6588 107.23 16.2316C103.326 17.8509 99.44 19.4522 95.5358 21.0714C96.0756 22.0969 96.9032 23.0325 98.0187 23.4103C99.5839 23.9681 101.455 23.7702 102.768 22.7266C103.29 22.3308 103.704 21.8091 104.1 21.3053C105.089 21.971 106.079 22.6187 107.068 23.2844C105.665 25.3894 103.308 26.8647 100.771 27.0986C97.9647 27.4405 94.9781 26.361 93.1609 24.166C90.1743 20.7116 90.4622 14.9182 93.8266 11.8057ZM95.7517 15.1341C95.14 16.0157 94.8881 17.0952 94.9061 18.1568C97.5149 17.0773 100.124 15.9977 102.732 14.9003C102.301 13.8927 101.257 13.281 100.196 13.1191C98.4865 12.8132 96.7053 13.7308 95.7517 15.1341Z" fill="#6C7C92"/>
</g>
<defs>
<clipPath id="clip0">
<rect width="107.23" height="35" fill="white"/>
</clipPath>
</defs>
</svg>
