<svg width="131" height="38" viewBox="0 0 131 38" fill="none" xmlns="http://www.w3.org/2000/svg">
<path d="M46.504 19.138C46.192 19.138 45.958 19.008 45.802 18.748L41.59 11.364C41.486 11.1907 41.278 10.818 40.966 10.246L40.862 10.272C40.8967 10.5667 40.914 11.026 40.914 11.65V23.402C40.914 23.8353 40.5153 24.052 39.718 24.052H39.38C38.5827 24.052 38.184 23.8353 38.184 23.402V6.398C38.184 5.96467 38.5827 5.748 39.38 5.748H40.446C41.07 5.748 41.486 5.93 41.694 6.294L46.426 14.562C46.7033 15.03 46.8853 15.4633 46.972 15.862C47.076 15.5847 47.2927 15.134 47.622 14.51L52.302 6.294C52.4927 5.93 52.9087 5.748 53.55 5.748H54.538C55.3353 5.748 55.734 5.96467 55.734 6.398V23.402C55.734 23.8353 55.3353 24.052 54.538 24.052H54.2C53.4027 24.052 53.004 23.8353 53.004 23.402V11.78C53.004 11.156 53.0213 10.688 53.056 10.376L52.952 10.35C52.744 10.766 52.536 11.1473 52.328 11.494L48.168 18.748C48.012 19.008 47.778 19.138 47.466 19.138H46.504ZM65.3481 24.182C63.3548 24.182 61.8381 23.5927 60.7981 22.414C59.7581 21.218 59.2381 19.4933 59.2381 17.24C59.2381 14.9867 59.7668 13.2533 60.8241 12.04C61.8814 10.8267 63.3894 10.22 65.3481 10.22C67.3068 10.22 68.7974 10.8267 69.8201 12.04C70.8601 13.236 71.3801 14.9693 71.3801 17.24C71.3801 19.4933 70.8688 21.218 69.8461 22.414C68.8234 23.5927 67.3241 24.182 65.3481 24.182ZM65.2961 21.972C66.4401 21.972 67.2808 21.582 67.8181 20.802C68.3728 20.022 68.6501 18.826 68.6501 17.214C68.6501 15.602 68.3728 14.406 67.8181 13.626C67.2808 12.8287 66.4401 12.43 65.2961 12.43C64.1694 12.43 63.3374 12.8287 62.8001 13.626C62.2628 14.406 61.9941 15.602 61.9941 17.214C61.9941 18.826 62.2541 20.022 62.7741 20.802C63.3114 21.582 64.1521 21.972 65.2961 21.972ZM80.1508 24.182C78.1575 24.182 76.6408 23.5927 75.6008 22.414C74.5608 21.218 74.0408 19.4933 74.0408 17.24C74.0408 14.9867 74.5695 13.2533 75.6268 12.04C76.6842 10.8267 78.1922 10.22 80.1508 10.22C82.1095 10.22 83.6002 10.8267 84.6228 12.04C85.6628 13.236 86.1828 14.9693 86.1828 17.24C86.1828 19.4933 85.6715 21.218 84.6488 22.414C83.6262 23.5927 82.1268 24.182 80.1508 24.182ZM80.0988 21.972C81.2428 21.972 82.0835 21.582 82.6208 20.802C83.1755 20.022 83.4528 18.826 83.4528 17.214C83.4528 15.602 83.1755 14.406 82.6208 13.626C82.0835 12.8287 81.2428 12.43 80.0988 12.43C78.9722 12.43 78.1402 12.8287 77.6028 13.626C77.0655 14.406 76.7968 15.602 76.7968 17.214C76.7968 18.826 77.0568 20.022 77.5768 20.802C78.1142 21.582 78.9548 21.972 80.0988 21.972ZM90.7676 24.052C89.9702 24.052 89.5716 23.8353 89.5716 23.402V14.536C89.5716 13.392 89.5196 12.56 89.4156 12.04C89.3116 11.52 89.2596 11.2253 89.2596 11.156C89.2596 10.9133 89.4762 10.74 89.9096 10.636C90.3429 10.532 90.7416 10.48 91.1056 10.48C91.3656 10.48 91.5476 10.6013 91.6516 10.844C91.7729 11.0867 91.8596 11.3467 91.9116 11.624C91.9809 11.9013 92.0242 12.092 92.0416 12.196C92.5616 11.5893 93.1769 11.1127 93.8876 10.766C94.5982 10.402 95.3176 10.22 96.0456 10.22C97.3629 10.22 98.3769 10.5927 99.0876 11.338C99.8156 12.066 100.18 13.0973 100.18 14.432V23.402C100.18 23.8353 99.7809 24.052 98.9836 24.052H98.6976C97.9002 24.052 97.5016 23.8353 97.5016 23.402V14.744C97.5016 14.0333 97.3022 13.4873 96.9036 13.106C96.5049 12.7073 95.9242 12.508 95.1616 12.508C94.6069 12.508 94.0696 12.6727 93.5496 13.002C93.0296 13.314 92.5962 13.7213 92.2496 14.224V23.402C92.2496 23.8353 91.8509 24.052 91.0536 24.052H90.7676ZM109.816 24.182C105.483 24.182 103.316 21.8853 103.316 17.292C103.316 14.952 103.845 13.1927 104.902 12.014C105.96 10.818 107.476 10.22 109.452 10.22C111.272 10.22 112.633 10.8093 113.534 11.988C114.436 13.1667 114.886 14.8393 114.886 17.006C114.886 17.1793 114.756 17.422 114.496 17.734C114.254 18.046 114.054 18.202 113.898 18.202H106.124C106.228 19.5193 106.584 20.4813 107.19 21.088C107.797 21.6773 108.681 21.972 109.842 21.972C110.501 21.972 111.073 21.894 111.558 21.738C112.061 21.582 112.486 21.4173 112.832 21.244C113.196 21.0533 113.404 20.958 113.456 20.958C113.647 20.958 113.864 21.1573 114.106 21.556C114.366 21.9547 114.496 22.2493 114.496 22.44C114.496 22.7173 114.262 22.9947 113.794 23.272C113.344 23.532 112.754 23.7487 112.026 23.922C111.298 24.0953 110.562 24.182 109.816 24.182ZM112.156 16.122C112.156 14.926 111.922 14.016 111.454 13.392C111.004 12.7507 110.319 12.43 109.4 12.43C107.442 12.43 106.35 13.6607 106.124 16.122H112.156ZM119.386 24.052C118.606 24.052 118.216 23.8353 118.216 23.402V5.072C118.216 4.63867 118.606 4.422 119.386 4.422H119.672C120.469 4.422 120.868 4.63867 120.868 5.072V12.014C121.371 11.494 121.951 11.0693 122.61 10.74C123.286 10.3933 124.005 10.22 124.768 10.22C125.912 10.22 126.874 10.5407 127.654 11.182C128.434 11.8233 128.824 12.9067 128.824 14.432V23.402C128.824 23.8353 128.425 24.052 127.628 24.052H127.368C126.571 24.052 126.172 23.8353 126.172 23.402V14.744C126.172 14.0333 125.973 13.4873 125.574 13.106C125.175 12.7073 124.586 12.508 123.806 12.508C123.303 12.508 122.835 12.6293 122.402 12.872C121.969 13.0973 121.613 13.3573 121.336 13.652C121.076 13.9293 120.92 14.12 120.868 14.224V23.402C120.868 23.8353 120.469 24.052 119.672 24.052H119.386Z" fill="#112340"/>
<circle cx="14" cy="16" r="14" fill="#42C1A6"/>
<path d="M5 19L5.30573 19.6115C8.99097 26.9819 19.509 26.9819 23.1943 19.6115L23.5 19" stroke="#112340" stroke-width="2" stroke-linecap="round" stroke-linejoin="round"/>
<circle cx="22" cy="5" r="5" fill="#FFD063"/>
</svg>
