<svg width="117" height="35" viewBox="0 0 117 35" fill="none" xmlns="http://www.w3.org/2000/svg">
<g clip-path="url(#clip0)">
<path d="M17.4999 0C7.83518 0 0 7.83496 0 17.4997C0 27.1654 7.83518 35 17.4999 35C27.165 35 34.9998 27.1654 34.9998 17.4997C34.9998 7.83558 27.1654 0.000835246 17.4997 0.000835246L17.4999 0ZM25.5252 25.2396C25.2109 25.7551 24.5393 25.9166 24.0254 25.6025C19.916 23.0909 14.7435 22.5235 8.65203 23.9151C8.06503 24.0497 7.47991 23.6817 7.34618 23.0949C7.21181 22.5079 7.57813 21.9228 8.16659 21.789C14.8328 20.265 20.5509 20.921 25.1635 23.7396C25.6776 24.0551 25.8406 24.7259 25.525 25.24L25.5252 25.2396ZM27.6672 20.4752C27.2714 21.1174 26.4317 21.3188 25.7904 20.9245C21.0875 18.0336 13.9162 17.1963 8.35238 18.8852C7.63079 19.1031 6.86868 18.6965 6.64967 17.9761C6.43234 17.2546 6.83922 16.4939 7.55954 16.2745C13.915 14.3461 21.8158 15.2802 27.2177 18.5997C27.8592 18.9947 28.0619 19.8347 27.667 20.4754L27.6672 20.4752ZM27.8511 15.5134C22.2101 12.1634 12.9054 11.8554 7.52044 13.4897C6.65573 13.752 5.74127 13.2638 5.47922 12.3991C5.21716 11.534 5.70491 10.6201 6.57025 10.3572C12.7518 8.48068 23.028 8.84324 29.5216 12.6981C30.2994 13.1598 30.5545 14.1643 30.0935 14.941C29.6338 15.7188 28.6266 15.9752 27.8513 15.5134H27.8511ZM47.6114 16.1554C44.5899 15.4348 44.052 14.9291 44.052 13.8665C44.052 12.8626 44.9972 12.187 46.4027 12.187C47.7652 12.187 49.1162 12.7 50.5326 13.7562C50.5755 13.7881 50.6292 13.8009 50.682 13.7925C50.7349 13.7846 50.7817 13.7555 50.8127 13.7119L52.288 11.6322C52.3486 11.5465 52.3321 11.4284 52.2504 11.363C50.5646 10.0104 48.6663 9.35272 46.4475 9.35272C43.185 9.35272 40.9062 11.3106 40.9062 14.1118C40.9062 17.1158 42.872 18.1795 46.269 19.0005C49.1603 19.6665 49.6483 20.2245 49.6483 21.2219C49.6483 22.3271 48.6615 23.0142 47.0735 23.0142C45.3098 23.0142 43.8713 22.4201 42.262 21.0265C42.2221 20.992 42.1673 20.9763 42.1167 20.9793C42.0634 20.9837 42.0148 21.0083 41.9809 21.0491L40.3267 23.0178C40.2573 23.0995 40.2661 23.2215 40.3463 23.2922C42.2187 24.9637 44.5216 25.8466 47.0067 25.8466C50.5222 25.8466 52.7939 23.9258 52.7939 20.9527C52.8002 18.443 51.2977 17.0533 47.6177 16.1581L47.6114 16.1554ZM60.7474 13.1754C59.2236 13.1754 57.9737 13.7756 56.943 15.0054V13.6212C56.943 13.5119 56.8544 13.4229 56.7453 13.4229H54.0398C53.9305 13.4229 53.8421 13.5119 53.8421 13.6212V29.0019C53.8421 29.1112 53.9305 29.2002 54.0398 29.2002H56.7453C56.8544 29.2002 56.943 29.1112 56.943 29.0019V24.1468C57.9739 25.3037 59.224 25.869 60.7474 25.869C63.5787 25.869 66.445 23.6894 66.445 19.5229C66.4492 15.3554 63.5821 13.1752 60.7505 13.1752L60.7474 13.1754ZM63.2989 19.5229C63.2989 21.6446 61.992 23.1252 60.1206 23.1252C58.2706 23.1252 56.8751 21.5773 56.8751 19.5229C56.8751 17.4688 58.2706 15.9207 60.1206 15.9207C61.9617 15.9205 63.2991 17.4351 63.2991 19.5227L63.2989 19.5229ZM73.7914 13.1754C70.145 13.1754 67.2884 15.9832 67.2884 19.5683C67.2884 23.1143 70.1254 25.8926 73.7467 25.8926C77.4059 25.8926 80.2714 23.0943 80.2714 19.5229C80.2714 15.9639 77.4252 13.1758 73.7912 13.1758L73.7914 13.1754ZM73.7914 23.1463C71.8519 23.1463 70.3897 21.588 70.3897 19.5219C70.3897 17.447 71.8013 15.9414 73.7466 15.9414C75.6986 15.9414 77.1706 17.4997 77.1706 19.5672C77.1706 21.6417 75.7496 23.1463 73.7916 23.1463H73.7914ZM88.0578 13.4229H85.0806V10.379C85.0806 10.2699 84.9924 10.1809 84.8831 10.1809H82.178C82.0685 10.1809 81.9797 10.2699 81.9797 10.379V13.4229H80.6788C80.57 13.4229 80.4818 13.5119 80.4818 13.6212V15.9464C80.4818 16.0555 80.57 16.1447 80.6788 16.1447H81.9797V22.1612C81.9797 24.5926 83.1899 25.8253 85.5765 25.8253C86.547 25.8253 87.3521 25.6249 88.1109 25.1946C88.1726 25.1602 88.2108 25.0937 88.2108 25.0231V22.8088C88.2108 22.7405 88.1753 22.6759 88.1168 22.6402C88.0578 22.6032 87.9845 22.6013 87.9241 22.6312C87.4029 22.8935 86.8991 23.0144 86.3359 23.0144C85.4678 23.0144 85.0806 22.6203 85.0806 21.737V16.1458H88.0578C88.1671 16.1458 88.2551 16.0567 88.2551 15.9475V13.6224C88.2593 13.5132 88.1715 13.4241 88.0608 13.4241L88.0578 13.4229ZM98.4312 13.4348V13.0609C98.4312 11.9611 98.8529 11.4706 99.7987 11.4706C100.363 11.4706 100.816 11.5826 101.323 11.7519C101.386 11.7716 101.451 11.7617 101.502 11.7243C101.554 11.6869 101.583 11.6269 101.583 11.5634V9.28354C101.583 9.19639 101.527 9.11929 101.443 9.09358C100.907 8.93413 100.221 8.77051 99.1946 8.77051C96.6957 8.77051 95.3748 10.1777 95.3748 12.8386V13.4111H94.075C93.9659 13.4111 93.8764 13.5002 93.8764 13.6092V15.9464C93.8764 16.0555 93.9659 16.1447 94.075 16.1447H95.3748V25.4249C95.3748 25.5342 95.463 25.6232 95.5721 25.6232H98.2776C98.3869 25.6232 98.4759 25.5342 98.4759 25.4249V16.1453H101.002L104.871 25.4233C104.432 26.3981 104 26.592 103.411 26.592C102.934 26.592 102.432 26.4497 101.919 26.1689C101.87 26.1423 101.813 26.1379 101.761 26.154C101.71 26.1722 101.666 26.2106 101.644 26.2608L100.727 28.2726C100.683 28.3677 100.721 28.4793 100.812 28.5286C101.77 29.047 102.634 29.2683 103.702 29.2683C105.7 29.2683 106.804 28.3378 107.777 25.8343L112.471 13.7056C112.495 13.6446 112.487 13.5756 112.45 13.5215C112.413 13.4678 112.353 13.4354 112.287 13.4354H109.471C109.386 13.4354 109.311 13.4891 109.283 13.5683L106.398 21.8097L103.238 13.5629C103.209 13.4862 103.135 13.4354 103.053 13.4354H98.4306L98.4312 13.4348ZM92.417 13.4229H89.7114C89.6021 13.4229 89.5131 13.5119 89.5131 13.6212V25.4249C89.5131 25.5342 89.6021 25.6232 89.7114 25.6232H92.417C92.5261 25.6232 92.6153 25.5342 92.6153 25.4249V13.622C92.6154 13.5959 92.6103 13.5701 92.6003 13.546C92.5903 13.5219 92.5757 13.5 92.5573 13.4816C92.5388 13.4631 92.5169 13.4485 92.4928 13.4386C92.4687 13.4287 92.4428 13.4236 92.4168 13.4237L92.417 13.4229ZM91.0796 8.04833C90.0078 8.04833 89.138 8.91596 89.138 9.98779C89.138 11.0602 90.008 11.9289 91.0796 11.9289C92.151 11.9289 93.0199 11.0602 93.0199 9.98779C93.0199 8.91618 92.1506 8.04833 91.0806 8.04833H91.0796ZM114.781 17.218C113.71 17.218 112.877 16.3581 112.877 15.3138C112.877 14.2696 113.721 13.3999 114.791 13.3999C115.862 13.3999 116.695 14.2596 116.695 15.303C116.695 16.3472 115.851 17.218 114.781 17.218H114.781ZM114.792 13.5892C113.816 13.5892 113.078 14.3645 113.078 15.3138C113.078 16.2628 113.811 17.0276 114.782 17.0276C115.757 17.0276 116.496 16.253 116.496 15.303C116.496 14.354 115.762 13.5892 114.792 13.5892H114.792ZM115.214 15.4988L115.752 16.2527H115.298L114.813 15.5611H114.396V16.2527H114.016V14.2541H114.908C115.372 14.2541 115.677 14.4917 115.677 14.8917C115.679 15.2194 115.489 15.4196 115.215 15.4988H115.214V15.4988ZM114.892 14.5971H114.396V15.2292H114.892C115.139 15.2292 115.287 15.1082 115.287 14.9128C115.287 14.7072 115.139 14.5971 114.892 14.5971H114.892V14.5971Z" fill="#6C7C92"/>
</g>
<defs>
<clipPath id="clip0">
<rect width="116.695" height="35" fill="white"/>
</clipPath>
</defs>
</svg>
